<?xml version="1.0" standalone="no"?>
<!DOCTYPE svg PUBLIC "-//W3C//DTD SVG 20010904//EN"
 "http://www.w3.org/TR/2001/REC-SVG-20010904/DTD/svg10.dtd">
<svg version="1.0" xmlns="http://www.w3.org/2000/svg"
 width="512.000000pt" height="512.000000pt" viewBox="0 0 512.000000 512.000000"
 preserveAspectRatio="xMidYMid meet">
<metadata>
Created by potrace 1.15, written by Peter Selinger 2001-2017
</metadata>
<g transform="translate(0.000000,512.000000) scale(0.100000,-0.100000)"
fill="#000000" stroke="none">
<path d="M203 4958 c-174 -172 -196 -198 -191 -231 3 -19 32 5 192 163 103
102 192 193 197 203 8 14 5 17 -17 17 -21 0 -60 -33 -181 -152z"/>
<path d="M303 4858 c-140 -139 -264 -265 -275 -281 -10 -15 -18 -37 -16 -50 3
-18 49 23 292 263 158 157 292 293 297 303 8 14 5 17 -17 17 -22 0 -75 -47
-281 -252z"/>
<path d="M402 4758 c-194 -194 -362 -365 -373 -381 -11 -15 -19 -37 -17 -50 4
-18 67 40 392 363 213 212 392 393 397 403 8 14 5 17 -18 17 -22 0 -89 -62
-381 -352z"/>
<path d="M502 4658 c-249 -249 -462 -465 -473 -481 -11 -15 -19 -37 -17 -50 4
-18 84 57 492 463 268 267 492 493 497 503 8 14 5 17 -18 17 -22 0 -104 -76
-481 -452z"/>
<path d="M602 4558 c-304 -304 -562 -565 -573 -581 -11 -15 -19 -37 -17 -50 4
-18 101 75 592 563 323 322 592 593 597 603 8 14 5 17 -18 17 -23 0 -118 -91
-581 -552z"/>
<path d="M702 4458 c-359 -359 -662 -665 -673 -681 -11 -15 -19 -37 -17 -50 4
-18 118 92 692 663 378 377 692 693 697 703 8 14 5 17 -18 17 -23 0 -133 -106
-681 -652z"/>
<path d="M1456 5010 c-83 -81 -109 -100 -132 -100 -45 0 -69 -23 -125 -118
-46 -80 -98 -134 -620 -657 -472 -474 -569 -575 -569 -598 0 -15 3 -27 7 -27
4 0 237 228 516 508 280 279 504 496 497 482 -7 -14 -44 -79 -83 -145 l-69
-120 -434 -435 c-357 -359 -434 -441 -434 -463 0 -15 3 -27 7 -27 4 0 178 170
386 378 l378 377 -87 -150 -87 -150 -298 -301 c-243 -244 -299 -305 -299 -327
0 -15 3 -27 7 -27 4 0 115 107 246 238 132 130 237 233 235 227 -3 -5 -40 -71
-83 -145 -73 -128 -86 -144 -241 -301 -128 -130 -164 -172 -164 -193 0 -14 3
-26 6 -26 4 0 54 46 112 103 73 70 99 91 85 67 -12 -19 -44 -78 -73 -130 -29
-52 -70 -118 -91 -146 -48 -62 -63 -149 -35 -202 10 -19 12 -33 6 -37 -6 -3
-10 -17 -10 -31 0 -22 2 -23 21 -14 11 7 22 10 23 8 1 -2 12 -18 23 -37 l21
-35 -44 -49 c-26 -30 -44 -59 -44 -73 0 -21 3 -23 18 -15 9 5 35 28 56 50 l40
41 23 -41 23 -42 -80 -83 c-57 -59 -80 -91 -80 -109 0 -14 3 -25 6 -25 4 0 46
38 94 86 l87 85 22 -36 c11 -20 21 -39 21 -42 0 -4 -52 -59 -115 -124 -87 -88
-115 -124 -115 -143 0 -14 3 -26 7 -26 3 0 62 55 131 123 68 67 126 118 128
112 2 -5 13 -23 23 -40 l18 -30 -153 -156 c-121 -123 -154 -162 -154 -183 0
-22 3 -25 18 -17 9 5 82 75 162 155 80 80 148 146 152 146 4 0 16 -17 27 -37
l19 -38 -189 -191 c-150 -151 -189 -197 -189 -218 0 -14 3 -26 7 -26 4 0 96
88 204 196 l197 197 22 -43 22 -42 -226 -228 c-183 -183 -226 -232 -226 -254
0 -22 3 -25 18 -17 9 5 116 109 237 230 121 122 223 221 226 221 3 0 14 -18
24 -40 l18 -41 -261 -263 c-212 -212 -262 -268 -262 -289 0 -15 3 -27 7 -27 4
0 128 120 275 267 147 147 269 265 272 262 2 -2 13 -20 25 -39 l21 -35 -300
-301 c-244 -244 -300 -305 -300 -327 0 -15 3 -27 7 -27 4 0 145 137 313 305
l306 306 23 -42 23 -41 -336 -337 c-274 -275 -336 -342 -336 -364 0 -15 3 -27
7 -27 4 0 161 154 349 342 l342 341 21 -34 c12 -19 21 -38 21 -44 0 -5 -166
-176 -370 -380 -303 -304 -370 -376 -370 -398 0 -15 3 -27 7 -27 4 0 177 170
385 377 207 207 379 375 381 372 2 -2 13 -20 25 -39 l21 -35 -409 -411 c-340
-340 -410 -415 -410 -437 0 -23 3 -26 18 -18 9 5 199 192 421 415 l405 405 24
-41 24 -40 -446 -447 c-368 -369 -446 -452 -446 -474 0 -15 3 -27 7 -27 4 0
211 203 459 451 l451 451 22 -35 c11 -19 21 -38 21 -43 0 -5 -201 -209 -446
-454 -245 -245 -450 -453 -455 -463 -8 -14 -5 -17 18 -17 22 0 102 75 470 442
243 243 444 440 446 437 2 -2 13 -20 24 -40 l21 -36 -385 -384 c-211 -211
-389 -392 -394 -401 -8 -15 -5 -18 18 -18 22 0 93 66 407 380 l381 379 23 -41
23 -42 -331 -331 c-181 -182 -330 -334 -330 -338 0 -4 12 -7 27 -7 22 0 85 59
343 316 l317 315 22 -36 c11 -20 21 -39 21 -43 0 -4 -115 -122 -256 -262 -140
-140 -260 -263 -265 -272 -8 -15 -5 -18 17 -18 22 0 74 47 278 250 l251 249
31 -34 30 -34 -199 -198 c-109 -109 -203 -206 -208 -215 -8 -15 -5 -18 17 -18
22 0 69 41 239 210 l211 210 64 0 64 0 -202 -203 c-111 -112 -202 -206 -202
-210 0 -4 12 -7 27 -7 21 0 69 43 238 210 l211 210 64 0 64 0 -202 -203 c-111
-112 -202 -206 -202 -210 0 -4 12 -7 27 -7 21 0 69 43 238 210 l211 210 64 0
64 0 -202 -203 c-111 -112 -202 -206 -202 -210 0 -4 12 -7 27 -7 21 0 69 43
238 210 l211 210 64 0 64 0 -202 -203 c-111 -112 -202 -206 -202 -210 0 -4 12
-7 27 -7 21 0 69 43 238 210 l211 210 64 0 64 0 -202 -203 c-111 -112 -202
-206 -202 -210 0 -4 12 -7 27 -7 21 0 69 43 238 210 l211 210 64 0 64 0 -202
-203 c-111 -112 -202 -206 -202 -210 0 -4 12 -7 27 -7 21 0 69 43 238 210
l211 210 64 0 64 0 -202 -203 c-111 -112 -202 -206 -202 -210 0 -4 12 -7 27
-7 21 0 69 43 238 210 l211 210 64 0 64 0 -202 -203 c-111 -112 -202 -206
-202 -210 0 -4 12 -7 27 -7 21 0 69 43 238 210 l211 210 64 0 64 0 -202 -203
c-111 -112 -202 -206 -202 -210 0 -4 12 -7 27 -7 21 0 69 43 238 210 l211 210
64 0 64 0 -202 -203 c-111 -112 -202 -206 -202 -210 0 -4 12 -7 27 -7 21 0 69
43 238 210 l211 210 64 0 64 0 -202 -203 c-111 -112 -202 -206 -202 -210 0 -4
12 -7 27 -7 21 0 69 43 238 210 l211 210 64 0 64 0 -202 -203 c-111 -112 -202
-206 -202 -210 0 -4 12 -7 27 -7 21 0 69 43 238 210 203 202 212 210 250 210
65 0 94 26 164 151 l63 114 559 560 c463 465 559 565 559 588 0 15 -3 27 -7
27 -4 0 -232 -224 -506 -498 -539 -538 -509 -515 -382 -292 44 77 87 124 471
510 349 351 424 431 424 453 0 15 -3 27 -7 27 -4 0 -171 -163 -372 -362 -200
-200 -358 -352 -349 -338 8 14 46 79 83 145 67 118 72 124 357 411 232 235
288 296 288 317 0 15 -3 27 -7 27 -4 0 -110 -102 -236 -228 l-229 -227 87 150
c82 142 95 158 236 301 116 118 149 157 149 178 0 14 -3 26 -6 26 -4 0 -49
-41 -100 -92 l-94 -91 91 159 c50 87 95 163 100 168 15 17 10 105 -8 132 -16
24 -15 28 1 59 10 18 16 40 14 50 -3 15 -6 15 -31 -5 -15 -12 -30 -21 -31 -19
-2 2 -13 19 -24 38 l-21 35 55 58 c35 39 54 68 54 84 0 32 -18 23 -84 -45
l-50 -50 -23 41 -23 41 90 93 c65 68 90 100 90 119 0 14 -3 25 -6 25 -4 0 -51
-43 -104 -96 l-97 -95 -22 36 c-11 20 -21 39 -21 42 0 4 56 64 125 134 95 97
125 133 125 153 0 14 -3 26 -7 26 -3 0 -66 -59 -139 -132 -74 -72 -135 -130
-137 -127 -2 2 -13 20 -25 39 l-21 35 164 166 c130 131 165 172 165 193 0 22
-3 25 -17 17 -10 -5 -88 -80 -173 -165 -85 -86 -158 -156 -162 -156 -4 0 -16
17 -27 38 l-19 37 199 201 c158 160 199 206 199 228 0 14 -3 26 -7 26 -4 0
-100 -92 -213 -205 l-206 -205 -23 41 -23 41 236 237 c189 191 236 243 236
264 0 15 -3 27 -7 27 -4 0 -116 -109 -249 -241 l-242 -242 -25 39 -25 39 274
276 c222 223 274 281 274 302 0 15 -3 27 -7 27 -4 0 -132 -125 -285 -277 -152
-152 -279 -275 -282 -272 -2 2 -13 20 -25 39 l-21 35 310 311 c254 255 310
315 310 338 0 22 -3 25 -17 17 -10 -5 -155 -147 -322 -315 l-305 -305 -24 40
-24 41 346 347 c283 284 346 352 346 374 0 15 -3 27 -7 27 -4 0 -165 -158
-359 -351 l-351 -351 -22 35 c-11 19 -21 38 -21 43 0 5 171 180 380 389 312
313 380 386 380 408 0 15 -3 27 -7 27 -4 0 -182 -174 -395 -387 -213 -213
-389 -385 -391 -382 -2 2 -13 20 -25 39 l-21 35 419 421 c348 348 420 425 420
447 0 23 -3 26 -17 18 -10 -5 -205 -197 -432 -425 l-415 -415 -23 41 -24 42
401 401 c220 220 400 404 400 408 0 4 -12 7 -27 7 -22 0 -96 -69 -414 -386
l-386 -386 -22 37 c-11 20 -21 39 -21 43 0 4 147 153 326 332 179 179 330 333
335 343 8 14 5 17 -17 17 -23 0 -85 -57 -351 -322 -177 -177 -324 -320 -326
-317 -2 2 -13 20 -24 40 l-21 36 265 264 c145 145 269 272 274 282 8 14 5 17
-17 17 -22 0 -75 -48 -284 -255 -141 -140 -259 -255 -263 -255 -3 0 -15 17
-26 38 l-20 39 200 199 c110 109 205 207 210 217 8 14 5 17 -17 17 -22 0 -66
-39 -225 -196 l-197 -196 -22 42 -22 42 146 147 c80 81 146 151 146 154 0 4
-12 7 -26 7 -20 0 -57 -30 -158 -129 l-131 -129 -34 30 -33 30 91 92 c50 52
91 96 91 100 0 3 -12 6 -26 6 -19 0 -52 -26 -128 -100 l-103 -100 -63 0 -64 0
92 94 c51 51 92 96 92 100 0 3 -12 6 -26 6 -19 0 -52 -26 -128 -100 l-103
-100 -63 0 -64 0 92 94 c51 51 92 96 92 100 0 3 -12 6 -26 6 -19 0 -52 -26
-128 -100 l-103 -100 -63 0 -64 0 92 94 c51 51 92 96 92 100 0 3 -12 6 -26 6
-19 0 -52 -26 -128 -100 l-103 -100 -63 0 -64 0 92 94 c51 51 92 96 92 100 0
3 -12 6 -26 6 -19 0 -52 -26 -128 -100 l-103 -100 -63 0 -64 0 92 94 c51 51
92 96 92 100 0 3 -12 6 -26 6 -19 0 -52 -26 -128 -100 l-103 -100 -63 0 -64 0
92 94 c51 51 92 96 92 100 0 3 -12 6 -26 6 -19 0 -52 -26 -128 -100 l-103
-100 -63 0 -64 0 92 94 c51 51 92 96 92 100 0 3 -12 6 -26 6 -19 0 -52 -26
-128 -100 l-103 -100 -63 0 -64 0 92 94 c51 51 92 96 92 100 0 3 -12 6 -26 6
-19 0 -52 -26 -128 -100 l-103 -100 -63 0 -64 0 92 94 c51 51 92 96 92 100 0
3 -12 6 -26 6 -19 0 -52 -26 -128 -100 l-103 -100 -63 0 -64 0 92 94 c51 51
92 96 92 100 0 3 -12 6 -26 6 -19 0 -52 -26 -128 -100 l-103 -100 -63 0 -64 0
92 94 c51 51 92 96 92 100 0 3 -12 6 -26 6 -19 0 -52 -26 -128 -100 l-103
-100 -63 0 -64 0 92 94 c51 51 92 96 92 100 0 3 -12 6 -26 6 -19 0 -52 -26
-128 -100z m609 -390 l-71 -71 -42 23 -41 23 46 48 c47 47 48 47 113 47 l65 0
-70 -70z m165 -35 c-58 -58 -108 -105 -112 -105 -4 0 -23 10 -43 21 l-37 22
83 83 84 84 65 0 65 0 -105 -105z m161 -39 c-142 -142 -145 -145 -170 -131
-61 33 -64 27 64 155 l120 120 65 0 65 0 -144 -144z m163 -37 l-181 -181 -41
23 -42 24 158 158 157 157 65 0 65 0 -181 -181z m166 -34 c-118 -118 -218
-215 -222 -215 -4 0 -23 10 -43 22 l-37 21 194 194 193 193 65 0 65 0 -215
-215z m160 -40 l-254 -254 -36 21 c-19 12 -37 23 -40 25 -2 2 99 107 225 233
l230 230 65 0 65 0 -255 -255z m164 -36 l-291 -291 -41 23 -42 24 268 268 267
267 65 0 65 0 -291 -291z m166 -34 c-179 -179 -329 -325 -334 -325 -5 0 -24
10 -43 21 l-35 22 303 303 304 304 65 0 65 0 -325 -325z m410 322 c0 -2 -16
-43 -36 -93 l-35 -89 -272 -272 -271 -272 -36 21 c-19 12 -37 23 -40 25 -5 5
672 683 682 683 5 0 8 -1 8 -3z m161 -351 l-92 -91 21 55 c12 30 30 77 41 104
10 27 30 62 45 77 l28 29 24 -41 25 -41 -92 -92z m-2119 141 l38 -22 -148
-148 -148 -148 4 68 4 68 101 103 c56 56 104 102 107 102 3 0 22 -10 42 -23z
m122 -68 c20 -12 36 -24 36 -28 0 -3 -97 -103 -216 -221 l-216 -215 7 70 6 70
172 173 c95 94 173 172 174 172 1 0 18 -9 37 -21z m1700 -66 c-9 -21 -28 -68
-42 -106 -24 -61 -41 -81 -168 -208 l-142 -142 -41 24 -42 23 223 223 c123
123 224 223 226 223 1 0 -5 -17 -14 -37z m437 -4 l21 -42 -191 -191 -192 -191
26 69 c14 37 32 85 41 105 8 21 68 90 142 164 70 70 128 127 129 127 1 0 12
-19 24 -41z m-2006 -6 c19 -9 35 -19 35 -22 0 -4 -128 -134 -285 -291 l-285
-285 0 65 0 65 242 242 c134 134 246 243 250 243 4 0 23 -8 43 -17z m127 -76
l38 -22 -360 -360 -360 -360 6 70 6 70 312 313 c171 171 313 312 316 312 3 0
22 -10 42 -23z m-860 -58 l-4 -66 -110 -109 -111 -109 33 60 c80 145 134 232
163 262 17 18 31 32 32 30 0 -1 -1 -32 -3 -68z m2816 7 l20 -33 -253 -253
c-235 -235 -254 -251 -274 -240 -16 8 -20 17 -16 28 4 9 12 31 17 47 11 32
466 497 479 489 4 -2 16 -19 27 -38z m-1798 -44 c0 -4 -192 -198 -426 -432
l-426 -425 4 68 4 68 384 384 384 384 38 -20 c21 -11 38 -23 38 -27z m98 -52
c17 -11 32 -21 32 -22 0 -2 -224 -227 -497 -501 l-498 -497 3 67 3 68 452 453
c249 248 456 452 462 452 5 0 25 -9 43 -20z m1772 -27 l21 -36 -223 -224
c-122 -123 -227 -223 -233 -223 -5 0 -25 9 -44 21 l-34 21 239 239 c131 131
242 239 245 239 4 0 17 -17 29 -37z m-1648 -46 l38 -22 -571 -570 -571 -570 6
70 7 70 522 523 c287 287 524 522 527 522 3 0 22 -10 42 -23z m-1256 -92 c-5
-23 -63 -87 -242 -265 -182 -180 -231 -225 -212 -190 14 25 49 88 78 140 46
82 75 117 214 258 l161 163 3 -38 c2 -20 1 -51 -2 -68z m2980 1 l16 -29 -198
-198 c-217 -217 -197 -205 -264 -160 -12 9 26 52 200 225 147 148 217 212 222
203 5 -7 16 -25 24 -41z m-1566 -5 c0 -3 -286 -292 -635 -641 l-635 -635 0 65
0 65 597 597 597 597 38 -21 c21 -12 38 -24 38 -27z m124 -70 c3 -4 -257 -269
-577 -588 l-582 -582 -118 -70 c-65 -39 -120 -71 -122 -71 -25 0 84 114 661
691 l667 667 33 -20 c19 -11 36 -23 38 -27z m1522 -65 c5 -15 -31 -56 -164
-188 l-169 -170 -41 23 -42 24 188 188 187 187 17 -22 c10 -13 20 -31 24 -42z
m-3073 -38 l-6 -66 -369 -368 -368 -369 85 150 86 150 286 287 c158 158 288
286 290 284 1 -1 0 -32 -4 -68z m1649 49 l38 -22 -398 -397 -397 -397 -155
-91 -155 -91 510 510 c280 281 512 511 515 511 3 0 22 -10 42 -23z m158 -96
c0 -4 -93 -99 -207 -212 -206 -204 -209 -207 -363 -298 l-155 -92 324 325 325
325 38 -21 c21 -12 38 -24 38 -27z m1328 -19 l21 -38 -142 -142 c-78 -78 -146
-142 -151 -142 -5 0 -24 10 -43 21 l-35 22 158 158 c88 88 161 159 165 159 3
0 15 -17 27 -38z m-1231 -33 c32 -20 33 -22 17 -40 -9 -10 -76 -53 -148 -95
-72 -43 -142 -84 -156 -92 -14 -9 33 44 105 116 71 73 134 132 139 132 5 0 24
-10 43 -21z m-2309 -566 l-394 -394 -34 12 c-19 7 -36 13 -38 15 -13 10 69 98
437 467 l416 417 3 -62 3 -62 -393 -393z m3517 317 c-116 -117 -119 -118 -144
-105 -61 33 -65 26 78 169 l135 135 24 -41 24 -40 -117 -118z m169 25 l20 -36
-91 -91 -91 -91 -41 24 -42 23 107 107 c59 60 110 106 113 104 3 -2 15 -20 25
-40z m-1882 -738 l-660 -660 -40 25 -41 24 632 632 c489 488 647 641 697 671
l65 40 3 -37 c3 -35 -6 -45 -656 -695z m-1426 636 l-7 -68 -302 -302 c-166
-167 -308 -303 -316 -303 -7 0 -31 5 -53 12 l-39 12 358 358 c197 197 360 358
362 358 2 0 1 -30 -3 -67z m2436 34 l38 -22 -80 -80 -80 -80 0 65 c0 61 2 66
37 102 20 21 40 38 43 38 3 0 22 -10 42 -23z m945 -55 l22 -39 -62 -61 c-35
-34 -66 -62 -71 -62 -5 0 -24 10 -43 21 l-35 22 78 78 c43 44 81 79 84 79 3 0
15 -17 27 -38z m-787 -41 c0 -4 -66 -71 -146 -151 l-146 -145 6 70 6 69 102
103 102 102 38 -21 c21 -12 38 -24 38 -27z m-1107 -712 l-598 -597 -39 25 -39
25 634 634 634 634 3 -62 3 -62 -598 -597z m1204 660 l35 -22 -209 -209 -208
-208 -3 62 -3 62 168 168 c92 92 172 168 177 168 5 0 24 -10 43 -21z m-1491
-548 l-559 -559 -33 20 c-19 11 -36 23 -38 27 -3 4 194 206 437 449 l442 442
150 90 c83 49 152 90 155 90 3 0 -247 -251 -554 -559z m-1214 448 l-4 -66
-223 -223 -222 -222 -44 13 c-24 7 -46 14 -49 16 -2 2 119 127 270 278 151
151 275 273 276 272 0 -1 -1 -32 -4 -68z m2830 28 l37 -23 -275 -274 -274
-275 0 65 0 65 232 232 c128 128 235 233 238 233 3 0 22 -11 42 -23z m158 -96
c0 -4 -151 -157 -335 -341 l-335 -335 0 65 0 65 297 297 297 297 38 -21 c21
-12 38 -24 38 -27z m-1423 -629 l-534 -534 -41 23 -42 24 573 573 572 572 3
-62 3 -62 -534 -534z m1522 577 l34 -21 -399 -399 -399 -399 -3 62 -3 62 358
358 c197 197 362 358 368 358 5 0 25 -9 44 -21z m-3103 -134 c-4 -22 -43 -67
-144 -167 l-137 -136 -49 15 -49 15 189 189 189 189 3 -37 c2 -20 1 -51 -2
-68z m3226 62 l37 -23 -465 -465 -464 -464 0 65 0 65 422 422 c233 233 425
423 428 423 3 0 22 -11 42 -23z m-2308 -368 l-372 -372 -40 25 -41 24 257 256
257 257 150 90 c83 50 152 90 155 91 3 0 -162 -167 -366 -371z m724 -275
l-473 -472 -39 25 -39 25 509 509 509 509 3 -62 3 -62 -473 -472z m1742 546
c0 -3 -239 -244 -531 -535 l-531 -530 5 69 5 68 488 489 488 488 38 -22 c21
-12 38 -24 38 -27z m97 -51 l35 -22 -593 -594 -594 -593 -3 62 -3 62 553 553
c304 304 557 553 562 553 5 0 24 -10 43 -21z m-3493 -92 c-6 -62 -9 -68 -59
-117 l-53 -52 -51 13 -52 13 108 108 c59 59 109 106 110 104 2 -2 1 -33 -3
-69z m3618 20 l38 -22 -660 -660 -660 -660 0 65 0 65 617 617 c340 340 620
618 623 618 3 0 22 -10 42 -23z m-1900 -560 l-409 -409 -41 23 -42 24 448 448
447 447 3 -62 3 -62 -409 -409z m1937 409 c-98 -94 -364 -344 -389 -366 -9 -8
-82 -76 -160 -150 -79 -74 -148 -139 -155 -145 -6 -5 -45 -41 -86 -80 -41 -38
130 136 380 387 407 409 457 456 475 446 18 -10 13 -17 -65 -92z m-3038 -110
l-184 -184 -33 20 c-19 11 -36 23 -39 27 -2 4 25 36 61 72 44 44 111 92 217
156 83 50 154 92 157 92 3 1 -78 -82 -179 -183z m1162 -437 l-348 -347 -39 25
-39 25 384 384 384 384 3 -62 3 -62 -348 -347z m-2257 380 l28 -10 -74 -74
c-41 -41 -76 -75 -77 -75 -1 0 -12 19 -24 41 l-21 42 49 49 c50 51 55 52 119
27z m140 -40 l46 -12 -118 -118 -118 -118 -23 41 -24 42 88 88 c48 48 91 88
96 88 4 0 29 -5 53 -11z m148 -45 l48 -17 -153 -153 c-85 -85 -156 -154 -159
-154 -3 0 -15 17 -27 38 l-22 37 132 133 c72 72 132 132 133 132 0 0 22 -7 48
-16z m2308 -91 l-4 -68 -277 -279 -278 -278 -41 23 -42 24 323 323 c177 177
322 322 322 322 1 0 -1 -30 -3 -67z m-2139 40 c23 -14 -11 -56 -176 -221
l-184 -184 -21 37 c-12 20 -22 39 -22 43 0 4 75 82 168 175 157 158 169 167
197 161 17 -3 33 -8 38 -11z m-130 -375 l-157 -157 -24 41 -24 40 173 174 174
174 7 -57 8 -58 -157 -157z m2050 -149 l-218 -217 -39 25 -39 25 254 254 254
254 3 -62 3 -62 -218 -217z m-1416 240 l35 -22 -129 -129 -128 -128 -7 57 -8
58 92 92 c51 51 97 93 102 93 5 0 24 -10 43 -21z m-467 -72 l0 -52 -125 -125
c-68 -68 -126 -122 -129 -120 -2 3 -13 21 -25 40 l-21 35 142 142 c78 78 145
140 150 137 4 -3 8 -29 8 -57z m3352 11 c-10 -18 -49 -85 -85 -148 -66 -114
-69 -118 -427 -475 l-360 -360 -32 33 -33 32 475 475 c261 261 476 475 478
475 2 0 -5 -15 -16 -32z m-2768 -9 c20 -12 36 -24 36 -28 0 -3 -80 -86 -179
-185 l-178 -178 -7 32 c-15 75 -14 77 141 232 81 82 149 148 150 148 1 0 18
-9 37 -21z m1363 -307 l-154 -154 -41 23 -42 24 193 193 192 192 3 -62 3 -62
-154 -154z m-1230 227 l35 -22 -233 -233 c-129 -129 -237 -234 -241 -234 -4 0
-8 24 -10 53 l-3 52 200 203 c110 111 204 202 209 202 5 0 24 -10 43 -21z
m-698 -124 c1 -26 -14 -45 -98 -129 l-98 -98 -22 35 c-11 19 -21 38 -21 43 0
5 51 60 113 122 110 110 112 112 118 85 4 -16 7 -42 8 -58z m815 54 c20 -12
36 -24 36 -28 0 -3 -130 -136 -289 -295 l-288 -288 -7 58 -7 58 258 258 c142
142 259 258 260 258 1 0 18 -9 37 -21z m133 -80 l35 -22 -343 -343 c-366 -366
-357 -359 -358 -269 -1 39 4 45 306 347 170 170 312 308 317 308 5 0 24 -10
43 -21z m1041 -215 l-93 -92 -39 25 -39 25 129 129 129 129 3 -62 3 -62 -93
-92z m-924 145 c20 -12 36 -24 36 -28 0 -3 -180 -186 -399 -405 l-399 -399 -4
59 -5 59 366 368 c201 202 367 367 368 367 1 0 18 -9 37 -21z m-1118 -187
l-72 -73 -23 42 -23 41 88 89 89 90 6 -58 6 -58 -71 -73z m1251 107 l35 -22
-398 -399 c-314 -314 -406 -400 -434 -408 -89 -23 -90 -23 -90 -4 0 19 826
854 844 854 5 0 24 -10 43 -21z m117 -70 c20 -12 36 -24 36 -28 0 -3 -145
-151 -322 -328 l-323 -322 -65 -16 c-36 -9 -74 -19 -85 -21 -11 -3 146 161
350 365 203 204 371 371 372 371 1 0 18 -9 37 -21z m1763 14 c-154 -273 -152
-270 -341 -460 l-180 -183 -33 32 -33 32 292 293 c161 161 294 293 296 293 2
0 1 -3 -1 -7z m-1630 -94 l35 -22 -248 -248 -249 -249 -67 -19 c-36 -10 -77
-22 -89 -26 -14 -4 102 120 271 289 162 163 299 296 304 296 5 0 24 -10 43
-21z m117 -70 c20 -12 36 -24 36 -28 0 -3 -78 -84 -172 -178 l-173 -172 -75
-20 c-41 -12 -79 -21 -85 -21 -5 0 89 99 210 220 121 121 221 220 222 220 1 0
18 -9 37 -21z m133 -80 l35 -22 -101 -101 c-99 -99 -103 -102 -174 -120 -39
-10 -79 -21 -87 -24 -8 -2 50 61 130 142 80 80 149 146 154 146 5 0 24 -10 43
-21z m478 -319 l29 -30 -119 -120 -120 -120 -65 0 -65 0 150 150 c82 83 152
150 156 150 3 0 18 -14 34 -30z m-275 -135 l-135 -135 -65 0 -65 0 110 110
110 110 85 24 c47 13 87 25 90 25 3 1 -56 -60 -130 -134z m333 -67 l-67 -68
-66 0 -65 0 100 100 99 100 33 -32 33 -32 -67 -68z m-573 27 l-95 -95 -65 0
-64 0 73 74 c67 68 79 75 145 94 39 11 78 20 86 21 8 0 -28 -42 -80 -94z"/>
<path d="M4296 850 c-449 -448 -822 -823 -827 -832 -8 -15 -5 -18 18 -18 23 0
152 124 811 783 431 430 792 794 803 810 11 15 19 37 17 50 -4 18 -141 -114
-822 -793z"/>
<path d="M4396 750 c-394 -393 -722 -723 -727 -732 -8 -15 -5 -18 18 -18 23 0
137 110 711 683 376 375 692 694 703 710 11 15 19 37 17 50 -4 18 -124 -97
-722 -693z"/>
<path d="M4496 650 c-339 -338 -622 -623 -627 -632 -8 -15 -5 -18 18 -18 23 0
123 95 611 583 321 320 592 594 603 610 11 15 19 37 17 50 -4 18 -106 -80
-622 -593z"/>
<path d="M4596 550 c-284 -283 -522 -523 -527 -533 -8 -14 -5 -17 18 -17 23 0
108 81 511 483 266 265 492 494 503 510 11 15 19 37 17 50 -4 18 -89 -62 -522
-493z"/>
<path d="M4696 450 c-229 -228 -422 -423 -427 -432 -8 -15 -5 -18 18 -18 22 0
93 66 411 383 211 210 392 394 403 410 11 15 19 37 17 50 -4 18 -72 -45 -422
-393z"/>
<path d="M4796 350 c-174 -173 -322 -323 -327 -332 -8 -15 -5 -18 17 -18 23 0
80 52 312 282 156 156 293 295 303 311 11 15 19 37 17 50 -4 18 -54 -28 -322
-293z"/>
<path d="M4896 250 c-119 -118 -222 -223 -227 -232 -8 -15 -5 -18 17 -18 21 0
65 37 211 183 205 202 226 227 221 260 -3 19 -37 -11 -222 -193z"/>
<path d="M4996 150 c-136 -133 -149 -150 -111 -150 18 0 49 23 111 82 102 98
127 130 122 161 -3 19 -19 7 -122 -93z"/>
</g>
</svg>
